<svg width="24" height="24" viewBox="0 0 24 24" fill="none" xmlns="http://www.w3.org/2000/svg">
<path d="M12 13.8752C11.7878 13.8752 11.5843 13.7918 11.4343 13.6433C11.2843 13.4949 11.2 13.2935 11.2 13.0836C11.2297 12.5663 11.3887 12.0644 11.6628 11.6229C11.9369 11.1815 12.3175 10.8143 12.7704 10.5543C13.0663 10.3938 13.3032 10.1445 13.447 9.8424C13.5907 9.54026 13.6339 9.2008 13.5704 8.87282C13.5088 8.55956 13.354 8.27165 13.126 8.04598C12.8979 7.82031 12.607 7.66717 12.2904 7.6062C12.0593 7.56399 11.8216 7.57267 11.5943 7.63163C11.367 7.69059 11.1556 7.79838 10.9751 7.94734C10.7947 8.09629 10.6496 8.28275 10.5502 8.49347C10.4508 8.70418 10.3995 8.93398 10.4 9.16652C10.4 9.37648 10.3157 9.57784 10.1657 9.7263C10.0157 9.87476 9.81217 9.95817 9.6 9.95817C9.38783 9.95817 9.18434 9.87476 9.03432 9.7263C8.88429 9.57784 8.8 9.37648 8.8 9.16652C8.79992 8.70401 8.90223 8.24709 9.09973 7.8279C9.29724 7.40871 9.58514 7.03742 9.9432 6.74014C10.2854 6.45705 10.6836 6.24788 11.1123 6.12605C11.541 6.00422 11.9907 5.97241 12.4326 6.03268C12.8744 6.09295 13.2987 6.24396 13.6781 6.47602C14.0575 6.70807 14.3837 7.01606 14.6357 7.3802C14.8878 7.74434 15.0601 8.1566 15.1417 8.59053C15.2232 9.02446 15.2122 9.47047 15.1094 9.89994C15.0065 10.3294 14.814 10.7329 14.5443 11.0844C14.2746 11.4359 13.9336 11.7278 13.5432 11.9412C13.3409 12.0646 13.1692 12.2312 13.0405 12.4289C12.9119 12.6266 12.8297 12.8503 12.8 13.0836C12.8 13.2935 12.7157 13.4949 12.5657 13.6433C12.4157 13.7918 12.2122 13.8752 12 13.8752ZM12.6344 20.81C14.3624 20.1229 20 17.421 20 11.5343V7.44074C20.0009 6.60874 19.7364 5.79767 19.2443 5.12306C18.7522 4.44846 18.0575 3.94472 17.2592 3.68361L12.252 2.04095C12.0885 1.98635 11.9115 1.98635 11.748 2.04095L6.7408 3.68361C5.94249 3.94472 5.2478 4.44846 4.75568 5.12306C4.26356 5.79767 3.99912 6.60874 4 7.44074V11.5343C4 16.7291 9.604 19.9067 11.3224 20.757C11.5301 20.8808 11.7603 20.9634 12 21C12.2216 20.9762 12.4367 20.9118 12.6344 20.81ZM16.7552 5.18615C17.234 5.34322 17.6507 5.6456 17.9459 6.05033C18.2412 6.45506 18.4001 6.94157 18.4 7.44074V11.5343C18.4 16.4291 13.5304 18.747 12.0376 19.3407C10.5272 18.5934 5.6 15.8219 5.6 11.5343V7.44074C5.59994 6.94157 5.75882 6.45506 6.05408 6.05033C6.34935 5.6456 6.76598 5.34322 7.2448 5.18615L12 3.62661L16.7552 5.18615ZM12 15.4585C11.8418 15.4585 11.6871 15.5049 11.5555 15.5919C11.424 15.6789 11.3214 15.8025 11.2609 15.9472C11.2003 16.0919 11.1845 16.251 11.2154 16.4046C11.2462 16.5582 11.3224 16.6992 11.4343 16.8099C11.5462 16.9206 11.6887 16.996 11.8439 17.0266C11.9991 17.0571 12.16 17.0414 12.3061 16.9815C12.4523 16.9216 12.5773 16.8201 12.6652 16.69C12.7531 16.5598 12.8 16.4067 12.8 16.2501C12.8 16.0402 12.7157 15.8388 12.5657 15.6904C12.4157 15.5419 12.2122 15.4585 12 15.4585Z" fill="#0052CC"/>
</svg>
