<svg width="24" height="24" viewBox="0 0 24 24" fill="none" xmlns="http://www.w3.org/2000/svg">
<g id="Icons">
<path id="Vector" d="M18.5345 14.1371L15.5439 19.0098C15.2154 19.5481 14.7684 20.0045 14.2367 20.3443C13.705 20.6841 13.1026 20.8984 12.4755 20.9707C12.3103 20.9903 12.144 21.0001 11.9776 21C11.1257 20.9988 10.2949 20.7348 9.59908 20.244C8.88001 20.7819 7.99177 21.0448 7.09528 20.9851C6.19878 20.9254 5.35336 20.5471 4.71217 19.9186C4.07098 19.2902 3.67644 18.4532 3.60005 17.5593C3.52365 16.6654 3.77045 15.7738 4.29572 15.0459L3.25313 14.0065C2.80794 13.5619 2.46925 13.0226 2.26243 12.4288C2.0556 11.835 1.986 11.2022 2.05883 10.5778C2.13167 9.95332 2.34505 9.35342 2.683 8.82299C3.02095 8.29256 3.47471 7.84536 4.0103 7.51486L8.58265 4.69181C9.82125 3.89918 11.2778 3.51489 12.7469 3.59315C14.2159 3.67141 15.6233 4.20828 16.7704 5.12801L18.0857 3.81465C18.1589 3.73903 18.2463 3.67872 18.3431 3.63723C18.4398 3.59574 18.5438 3.5739 18.6491 3.57299C18.7544 3.57208 18.8588 3.59211 18.9562 3.63191C19.0537 3.67172 19.1422 3.7305 19.2166 3.80483C19.2911 3.87916 19.35 3.96755 19.3898 4.06485C19.4297 4.16214 19.4497 4.26638 19.4488 4.3715C19.4479 4.47662 19.426 4.5805 19.3845 4.67708C19.3429 4.77367 19.2825 4.86102 19.2068 4.93405L17.8931 6.24662C18.7742 7.34881 19.3059 8.68844 19.4202 10.0941C19.5344 11.4997 19.226 12.9075 18.5345 14.1371ZM8.39078 19.1372L5.44218 16.1922C5.21176 16.6037 5.12289 17.0793 5.1892 17.5461C5.25551 18.0128 5.47334 18.445 5.80927 18.7762C6.14815 19.0976 6.57918 19.3052 7.04206 19.37C7.50494 19.4347 7.97651 19.3533 8.39078 19.1372ZM16.2566 6.78733C15.3762 5.89975 14.2172 5.34098 12.9736 5.20452C11.73 5.06805 10.4771 5.36215 9.42465 6.03763L4.84437 8.86069C4.5122 9.0657 4.23079 9.34309 4.02121 9.6721C3.81162 10.0011 3.6793 10.3732 3.63415 10.7605C3.589 11.1478 3.6322 11.5403 3.7605 11.9086C3.8888 12.2768 4.09888 12.6114 4.37501 12.8871L10.1549 18.6591C10.4314 18.9355 10.7672 19.1458 11.1369 19.274C11.5066 19.4023 11.9006 19.4451 12.2892 19.3994C12.6779 19.3537 13.0511 19.2206 13.3808 19.0101C13.7106 18.7996 13.9882 18.5171 14.1928 18.1841L17.17 13.3351C17.7515 12.2923 17.9769 11.0887 17.8121 9.90654C17.6473 8.72437 17.1012 7.62799 16.2566 6.78337V6.78733ZM17.2707 21C17.1032 21.0003 16.94 20.9477 16.8044 20.8496C16.6687 20.7516 16.5676 20.6132 16.5156 20.4543C16.4636 20.2954 16.4633 20.1241 16.5148 19.965C16.5662 19.8059 16.6668 19.6672 16.8021 19.5687C18.1904 18.5265 19.1299 16.9963 19.4304 15.2882C19.4515 15.1853 19.4928 15.0877 19.552 15.001C19.6112 14.9143 19.6871 14.8402 19.7752 14.783C19.8634 14.7258 19.962 14.6867 20.0654 14.6679C20.1689 14.6492 20.275 14.6511 20.3776 14.6737C20.4803 14.6963 20.5774 14.739 20.6634 14.7994C20.7494 14.8598 20.8224 14.9366 20.8784 15.0255C20.9343 15.1144 20.972 15.2134 20.9893 15.317C21.0065 15.4205 21.003 15.5264 20.9788 15.6286C20.5903 17.712 19.4339 19.5743 17.7377 20.848C17.602 20.9467 17.4385 21 17.2707 21ZM2.78931 6.5435C2.64288 6.54285 2.49948 6.50171 2.37503 6.42466C2.25057 6.3476 2.14992 6.23764 2.08424 6.10695C2.01855 5.97627 1.9904 5.82997 2.00289 5.68429C2.01539 5.5386 2.06805 5.39922 2.15504 5.28159C3.44815 3.55624 5.35165 2.38833 7.47742 2.01599C7.68349 1.974 7.89783 2.01547 8.07328 2.13127C8.24873 2.24707 8.37093 2.42773 8.41298 2.63349C8.45504 2.83925 8.41351 3.05327 8.29753 3.22846C8.18155 3.40364 8.00063 3.52566 7.79456 3.56765C6.04869 3.85551 4.48223 4.80709 3.42359 6.22288C3.35016 6.32193 3.25458 6.40249 3.14446 6.45815C3.03434 6.51381 2.91274 6.54304 2.78931 6.5435Z" fill="#56628C"/>
</g>
</svg>
