<svg width="25" height="25" viewBox="0 0 25 25" fill="none" xmlns="http://www.w3.org/2000/svg">
<g id="fi-rr-shield-interrogation" clip-path="url(#clip0_1074_1464)">
<path id="Vector" d="M12.5 15.5001C12.2348 15.5001 11.9804 15.3948 11.7929 15.2072C11.6054 15.0197 11.5 14.7653 11.5 14.5001C11.5371 13.8467 11.7359 13.2127 12.0785 12.655C12.4212 12.0974 12.8969 11.6335 13.463 11.3051C13.8329 11.1024 14.129 10.7875 14.3087 10.4059C14.4884 10.0242 14.5424 9.59541 14.463 9.18112C14.386 8.7854 14.1925 8.42171 13.9075 8.13664C13.6224 7.85158 13.2587 7.65814 12.863 7.58112C12.5741 7.5278 12.2771 7.53877 11.9929 7.61325C11.7088 7.68773 11.4445 7.82388 11.2189 8.01204C10.9933 8.2002 10.812 8.43573 10.6877 8.70191C10.5635 8.96809 10.4994 9.25837 10.5 9.55212C10.5 9.81733 10.3946 10.0717 10.2071 10.2592C10.0196 10.4468 9.76522 10.5521 9.5 10.5521C9.23479 10.5521 8.98043 10.4468 8.7929 10.2592C8.60536 10.0717 8.5 9.81733 8.5 9.55212C8.4999 8.96787 8.62779 8.39069 8.87467 7.86117C9.12155 7.33165 9.48143 6.86264 9.929 6.48712C10.3568 6.12952 10.8545 5.8653 11.3904 5.7114C11.9263 5.5575 12.4884 5.51733 13.0407 5.59346C13.5931 5.66959 14.1234 5.86034 14.5976 6.15348C15.0719 6.44661 15.4796 6.83565 15.7947 7.29564C16.1097 7.75562 16.3251 8.27639 16.4271 8.82452C16.529 9.37266 16.5153 9.93606 16.3867 10.4786C16.2581 11.0211 16.0175 11.5307 15.6804 11.9748C15.3433 12.4188 14.917 12.7875 14.429 13.0571C14.1762 13.2129 13.9615 13.4234 13.8007 13.6731C13.6399 13.9229 13.5372 14.2055 13.5 14.5001C13.5 14.7653 13.3946 15.0197 13.2071 15.2072C13.0196 15.3948 12.7652 15.5001 12.5 15.5001ZM13.293 24.2601C15.453 23.3921 22.5 19.9791 22.5 12.5431V7.37212C22.5011 6.32113 22.1706 5.29659 21.5554 4.44443C20.9403 3.59227 20.0719 2.95596 19.074 2.62612L12.815 0.551116C12.6107 0.482148 12.3893 0.482148 12.185 0.551116L5.926 2.62612C4.92811 2.95596 4.05975 3.59227 3.4446 4.44443C2.82946 5.29659 2.49889 6.32113 2.5 7.37212V12.5431C2.5 19.1051 9.505 23.1191 11.653 24.1931C11.9127 24.3496 12.2004 24.4538 12.5 24.5001C12.777 24.4701 13.0459 24.3887 13.293 24.2601ZM18.444 4.52412C19.0425 4.72253 19.5633 5.10449 19.9324 5.61575C20.3015 6.12701 20.5001 6.74156 20.5 7.37212V12.5431C20.5 18.7261 14.413 21.6541 12.547 22.4041C10.659 21.4601 4.5 17.9591 4.5 12.5431V7.37212C4.49992 6.74156 4.69852 6.12701 5.06761 5.61575C5.43669 5.10449 5.95748 4.72253 6.556 4.52412L12.5 2.55412L18.444 4.52412ZM12.5 17.5001C12.3022 17.5001 12.1089 17.5588 11.9444 17.6686C11.78 17.7785 11.6518 17.9347 11.5761 18.1174C11.5004 18.3002 11.4806 18.5012 11.5192 18.6952C11.5578 18.8892 11.653 19.0674 11.7929 19.2072C11.9327 19.3471 12.1109 19.4423 12.3049 19.4809C12.4989 19.5195 12.7 19.4997 12.8827 19.424C13.0654 19.3483 13.2216 19.2201 13.3315 19.0557C13.4414 18.8912 13.5 18.6979 13.5 18.5001C13.5 18.2349 13.3946 17.9805 13.2071 17.793C13.0196 17.6055 12.7652 17.5001 12.5 17.5001Z" fill="white"/>
</g>
<defs>
<clipPath id="clip0_1074_1464">
<rect width="24" height="24" fill="white" transform="translate(0.5 0.5)"/>
</clipPath>
</defs>
</svg>
