<svg width="8" height="20" viewBox="0 0 8 20" fill="none" xmlns="http://www.w3.org/2000/svg">
<g opacity="0.6" clip-path="url(#clip0_90_2575)">
<rect width="8" height="20" fill="white" fill-opacity="0.01"/>
<path fill-rule="evenodd" clip-rule="evenodd" d="M0.292068 8.293C0.105262 8.48189 0.000488281 8.73684 0.000488281 9.0025C0.000488281 9.26816 0.105262 9.52311 0.292068 9.712L3.23107 12.677C3.44907 12.892 3.73107 12.999 4.01007 12.999C4.28907 12.999 4.56607 12.892 4.77907 12.677L7.70907 9.722C7.89563 9.53298 8.00024 9.27809 8.00024 9.0125C8.00024 8.74692 7.89563 8.49202 7.70907 8.303C7.61724 8.20982 7.5078 8.13582 7.38711 8.08531C7.26642 8.0348 7.1369 8.00879 7.00607 8.00879C6.87524 8.00879 6.74571 8.0348 6.62503 8.08531C6.50434 8.13582 6.3949 8.20982 6.30307 8.303L4.00507 10.62L1.69807 8.293C1.60603 8.20018 1.49652 8.12651 1.37586 8.07623C1.25521 8.02595 1.12578 8.00006 0.995069 8.00006C0.864353 8.00006 0.734931 8.02595 0.614272 8.07623C0.493613 8.12651 0.384105 8.20018 0.292068 8.293Z" fill="#344563"/>
</g>
<defs>
<clipPath id="clip0_90_2575">
<rect width="8" height="20" fill="white"/>
</clipPath>
</defs>
</svg>
